<svg width="4844" height="1688" viewBox="0 0 4844 1688" fill="none" xmlns="http://www.w3.org/2000/svg">
<path d="M1517 32V927H1150V451C1150 422.281 1126.72 399 1098 399H743V32H1517ZM806 1656H32V761H399V1237C399 1265.72 422.281 1289 451 1289H806V1656ZM391 443V604.5H32V32H589.5V391H443C414.281 391 391 414.281 391 443ZM1157.5 1241.5V1080H1516.5V1652.5H959V1293.5H1105.5C1134.22 1293.5 1157.5 1270.22 1157.5 1241.5ZM908 844.5C908 918.23 848.23 978 774.5 978C700.77 978 641 918.23 641 844.5C641 770.77 700.77 711 774.5 711C848.23 711 908 770.77 908 844.5Z" stroke="url(#paint0_linear_27_30)" stroke-width="64"/>
<path d="M2620 586H2384V1197H2271V586H2034V487H2620V586ZM2830.74 1207C2789.41 1207 2752.41 1200 2719.74 1186C2687.08 1171.33 2658.74 1151.33 2634.74 1126C2611.41 1100.67 2593.41 1072 2580.74 1040C2568.08 1007.33 2561.74 972.667 2561.74 936C2561.74 899.333 2568.08 864.667 2580.74 832C2593.41 799.333 2611.41 770.667 2634.74 746C2658.74 720.667 2687.08 701 2719.74 687C2753.08 672.333 2790.08 665 2830.74 665C2871.41 665 2908.08 672.333 2940.74 687C2974.08 701 3002.41 720.667 3025.74 746C3049.74 770.667 3068.08 799.333 3080.74 832C3093.41 864.667 3099.74 899.333 3099.74 936C3099.74 972.667 3093.41 1007.33 3080.74 1040C3068.08 1072 3049.74 1100.67 3025.74 1126C3002.41 1151.33 2974.08 1171.33 2940.74 1186C2908.08 1200 2871.41 1207 2830.74 1207ZM2674.74 937C2674.74 970.333 2681.74 1000.33 2695.74 1027C2709.74 1053.67 2728.41 1074.67 2751.74 1090C2775.08 1105.33 2801.41 1113 2830.74 1113C2859.41 1113 2885.41 1105.33 2908.74 1090C2932.74 1074 2951.74 1052.67 2965.74 1026C2979.74 998.667 2986.74 968.667 2986.74 936C2986.74 902.667 2979.74 872.667 2965.74 846C2951.74 819.333 2932.74 798.333 2908.74 783C2885.41 767 2859.41 759 2830.74 759C2801.41 759 2775.08 767 2751.74 783C2728.41 799 2709.74 820.333 2695.74 847C2681.74 873 2674.74 903 2674.74 937ZM3561.3 1197L3393.3 956L3307.3 1038V1197H3197.3V467H3307.3V927L3549.3 675H3667.3L3464.3 894L3678.3 1197H3561.3ZM3954.81 1207C3914.15 1207 3877.15 1200 3843.81 1186C3811.15 1171.33 3782.81 1151.67 3758.81 1127C3734.81 1101.67 3716.15 1073 3702.81 1041C3690.15 1008.33 3683.81 973.667 3683.81 937C3683.81 887.667 3695.15 842.667 3717.81 802C3740.48 760.667 3772.15 727.667 3812.81 703C3853.48 677.667 3901.15 665 3955.81 665C4010.48 665 4057.48 677.667 4096.81 703C4136.81 727.667 4167.81 760.333 4189.81 801C4211.81 841.667 4222.81 885.333 4222.81 932C4222.81 940 4222.48 947.667 4221.81 955C4221.15 961.667 4220.48 967.333 4219.81 972H3800.81C3802.81 1002.67 3811.15 1029.67 3825.81 1053C3841.15 1075.67 3860.48 1093.67 3883.81 1107C3907.15 1119.67 3932.15 1126 3958.81 1126C3988.15 1126 4015.81 1118.67 4041.81 1104C4068.48 1089.33 4086.48 1070 4095.81 1046L4189.81 1073C4178.48 1098.33 4161.15 1121.33 4137.81 1142C4115.15 1162 4088.15 1178 4056.81 1190C4025.48 1201.33 3991.48 1207 3954.81 1207ZM3797.81 899H4113.81C4111.81 869 4103.15 842.667 4087.81 820C4073.15 796.667 4054.15 778.667 4030.81 766C4008.15 752.667 3982.81 746 3954.81 746C3927.48 746 3902.15 752.667 3878.81 766C3856.15 778.667 3837.48 796.667 3822.81 820C3808.15 842.667 3799.81 869 3797.81 899ZM4781.54 1197H4671.54V904C4671.54 855.333 4663.54 819.667 4647.54 797C4632.21 774.333 4609.21 763 4578.54 763C4557.21 763 4535.87 768.333 4514.54 779C4493.87 789.667 4475.21 804.333 4458.54 823C4441.87 841 4429.87 862 4422.54 886V1197H4312.54V674H4412.54V779C4425.87 755.667 4443.21 735.667 4464.54 719C4486.54 701.667 4511.21 688.333 4538.54 679C4565.87 669.667 4594.87 665 4625.54 665C4656.87 665 4682.54 670.667 4702.54 682C4723.21 693.333 4739.21 709 4750.54 729C4762.54 748.333 4770.54 771 4774.54 797C4779.21 822.333 4781.54 849.333 4781.54 878V1197Z" fill="url(#paint1_linear_27_30)"/>
<defs>
<linearGradient id="paint0_linear_27_30" x1="0" y1="0" x2="1549" y2="1688" gradientUnits="userSpaceOnUse">
<stop stop-color="#6E4BB8"/>
<stop offset="1" stop-color="#EA8467"/>
</linearGradient>
<linearGradient id="paint1_linear_27_30" x1="2019" y1="257" x2="4252.31" y2="2134.74" gradientUnits="userSpaceOnUse">
<stop stop-color="white"/>
<stop offset="1" stop-color="white" stop-opacity="0.75"/>
</linearGradient>
</defs>
</svg>
