<svg width="4844" height="1688" viewBox="0 0 4844 1688" fill="none" xmlns="http://www.w3.org/2000/svg">
<path d="M1517 32V927H1150V451C1150 422.281 1126.72 399 1098 399H743V32H1517ZM806 1656H32V761H399V1237C399 1265.72 422.281 1289 451 1289H806V1656ZM391 443V604.5H32V32H589.5V391H443C414.281 391 391 414.281 391 443ZM1157.5 1241.5V1080H1516.5V1652.5H959V1293.5H1105.5C1134.22 1293.5 1157.5 1270.22 1157.5 1241.5ZM908 844.5C908 918.23 848.23 978 774.5 978C700.77 978 641 918.23 641 844.5C641 770.77 700.77 711 774.5 711C848.23 711 908 770.77 908 844.5Z" stroke="url(#paint0_linear_27_29)" stroke-width="64"/>
<path d="M2620 568H2384V1179H2271V568H2034V469H2620V568ZM2830.74 1189C2789.41 1189 2752.41 1182 2719.74 1168C2687.08 1153.33 2658.74 1133.33 2634.74 1108C2611.41 1082.67 2593.41 1054 2580.74 1022C2568.08 989.333 2561.74 954.667 2561.74 918C2561.74 881.333 2568.08 846.667 2580.74 814C2593.41 781.333 2611.41 752.667 2634.74 728C2658.74 702.667 2687.08 683 2719.74 669C2753.08 654.333 2790.08 647 2830.74 647C2871.41 647 2908.08 654.333 2940.74 669C2974.08 683 3002.41 702.667 3025.74 728C3049.74 752.667 3068.08 781.333 3080.74 814C3093.41 846.667 3099.74 881.333 3099.74 918C3099.74 954.667 3093.41 989.333 3080.74 1022C3068.08 1054 3049.74 1082.67 3025.74 1108C3002.41 1133.33 2974.08 1153.33 2940.74 1168C2908.08 1182 2871.41 1189 2830.74 1189ZM2674.74 919C2674.74 952.333 2681.74 982.333 2695.74 1009C2709.74 1035.67 2728.41 1056.67 2751.74 1072C2775.08 1087.33 2801.41 1095 2830.74 1095C2859.41 1095 2885.41 1087.33 2908.74 1072C2932.74 1056 2951.74 1034.67 2965.74 1008C2979.74 980.667 2986.74 950.667 2986.74 918C2986.74 884.667 2979.74 854.667 2965.74 828C2951.74 801.333 2932.74 780.333 2908.74 765C2885.41 749 2859.41 741 2830.74 741C2801.41 741 2775.08 749 2751.74 765C2728.41 781 2709.74 802.333 2695.74 829C2681.74 855 2674.74 885 2674.74 919ZM3561.3 1179L3393.3 938L3307.3 1020V1179H3197.3V449H3307.3V909L3549.3 657H3667.3L3464.3 876L3678.3 1179H3561.3ZM3954.81 1189C3914.15 1189 3877.15 1182 3843.81 1168C3811.15 1153.33 3782.81 1133.67 3758.81 1109C3734.81 1083.67 3716.15 1055 3702.81 1023C3690.15 990.333 3683.81 955.667 3683.81 919C3683.81 869.667 3695.15 824.667 3717.81 784C3740.48 742.667 3772.15 709.667 3812.81 685C3853.48 659.667 3901.15 647 3955.81 647C4010.48 647 4057.48 659.667 4096.81 685C4136.81 709.667 4167.81 742.333 4189.81 783C4211.81 823.667 4222.81 867.333 4222.81 914C4222.81 922 4222.48 929.667 4221.81 937C4221.15 943.667 4220.48 949.333 4219.81 954H3800.81C3802.81 984.667 3811.15 1011.67 3825.81 1035C3841.15 1057.67 3860.48 1075.67 3883.81 1089C3907.15 1101.67 3932.15 1108 3958.81 1108C3988.15 1108 4015.81 1100.67 4041.81 1086C4068.48 1071.33 4086.48 1052 4095.81 1028L4189.81 1055C4178.48 1080.33 4161.15 1103.33 4137.81 1124C4115.15 1144 4088.15 1160 4056.81 1172C4025.48 1183.33 3991.48 1189 3954.81 1189ZM3797.81 881H4113.81C4111.81 851 4103.15 824.667 4087.81 802C4073.15 778.667 4054.15 760.667 4030.81 748C4008.15 734.667 3982.81 728 3954.81 728C3927.48 728 3902.15 734.667 3878.81 748C3856.15 760.667 3837.48 778.667 3822.81 802C3808.15 824.667 3799.81 851 3797.81 881ZM4781.54 1179H4671.54V886C4671.54 837.333 4663.54 801.667 4647.54 779C4632.21 756.333 4609.21 745 4578.54 745C4557.21 745 4535.87 750.333 4514.54 761C4493.87 771.667 4475.21 786.333 4458.54 805C4441.87 823 4429.87 844 4422.54 868V1179H4312.54V656H4412.54V761C4425.87 737.667 4443.21 717.667 4464.54 701C4486.54 683.667 4511.21 670.333 4538.54 661C4565.87 651.667 4594.87 647 4625.54 647C4656.87 647 4682.54 652.667 4702.54 664C4723.21 675.333 4739.21 691 4750.54 711C4762.54 730.333 4770.54 753 4774.54 779C4779.21 804.333 4781.54 831.333 4781.54 860V1179Z" fill="url(#paint1_linear_27_29)"/>
<defs>
<linearGradient id="paint0_linear_27_29" x1="0" y1="0" x2="1549" y2="1688" gradientUnits="userSpaceOnUse">
<stop stop-color="#6E4BB8"/>
<stop offset="1" stop-color="#EA8467"/>
</linearGradient>
<linearGradient id="paint1_linear_27_29" x1="2019" y1="239" x2="4252.31" y2="2116.74" gradientUnits="userSpaceOnUse">
<stop stop-color="#0D0D0E"/>
<stop offset="1" stop-color="#0D0D0E" stop-opacity="0.75"/>
</linearGradient>
</defs>
</svg>
